<svg width="173" height="61" viewBox="0 0 173 61" fill="none" xmlns="http://www.w3.org/2000/svg">
<path fill-rule="evenodd" clip-rule="evenodd" d="M162.051 12.8835C162.051 13.3941 161.634 13.8082 161.12 13.8082C160.605 13.8082 160.188 13.3941 160.188 12.8835C160.188 12.3728 160.605 11.9587 161.12 11.9587C161.634 11.9587 162.051 12.3728 162.051 12.8835Z" fill="#1378E2"/>
<path fill-rule="evenodd" clip-rule="evenodd" d="M162.348 7.28361C162.348 7.95776 161.798 8.50424 161.12 8.50424C160.44 8.50424 159.89 7.95776 159.89 7.28361C159.89 6.60947 160.44 6.06299 161.12 6.06299C161.798 6.06299 162.348 6.60947 162.348 7.28361Z" fill="#22C4FA"/>
<path fill-rule="evenodd" clip-rule="evenodd" d="M167.366 10.058C167.366 10.7322 166.816 11.2787 166.137 11.2787C165.458 11.2787 164.908 10.7322 164.908 10.058C164.908 9.38388 165.458 8.8374 166.137 8.8374C166.816 8.8374 167.366 9.38388 167.366 10.058Z" fill="#22C4FA"/>
<path fill-rule="evenodd" clip-rule="evenodd" d="M165.837 17.0143C165.182 16.8354 164.798 16.1632 164.978 15.5133C165.159 14.8634 165.835 14.4816 166.489 14.661C167.144 14.84 167.528 15.5121 167.348 16.1616C167.167 16.8119 166.491 17.1933 165.837 17.0143Z" fill="#22C4FA"/>
<path fill-rule="evenodd" clip-rule="evenodd" d="M160.819 19.8911C160.164 19.7122 159.78 19.04 159.96 18.3901C160.141 17.7402 160.817 17.3588 161.472 17.5378C162.126 17.7168 162.511 18.3889 162.33 19.0388C162.15 19.6887 161.473 20.0701 160.819 19.8911Z" fill="#22C4FA"/>
<path fill-rule="evenodd" clip-rule="evenodd" d="M155.853 17.0143C155.198 16.8354 154.814 16.1632 154.994 15.5133C155.175 14.8634 155.852 14.4816 156.506 14.661C157.16 14.84 157.545 15.5121 157.364 16.1616C157.184 16.8119 156.507 17.1933 155.853 17.0143Z" fill="#22C4FA"/>
<path fill-rule="evenodd" clip-rule="evenodd" d="M155.853 11.2088C155.198 11.0298 154.814 10.3576 154.994 9.70815C155.175 9.05786 155.852 8.67644 156.506 8.85542C157.16 9.0344 157.545 9.70655 157.364 10.3564C157.184 11.0063 156.507 11.3877 155.853 11.2088Z" fill="#22C4FA"/>
<path fill-rule="evenodd" clip-rule="evenodd" d="M160.763 2.96796C159.953 2.74642 159.477 1.91438 159.701 1.11017C159.923 0.305573 160.761 -0.166928 161.571 0.0546066C162.381 0.276141 162.857 1.10819 162.634 1.91279C162.41 2.71739 161.573 3.18989 160.763 2.96796Z" fill="#26DCFD"/>
<mask id="mask0" mask-type="alpha" maskUnits="userSpaceOnUse" x="169" y="5" width="4" height="4">
<path fill-rule="evenodd" clip-rule="evenodd" d="M169.681 5.70264H172.724V8.72537H169.681V5.70264Z" fill="white"/>
</mask>
<g mask="url(#mask0)">
<path fill-rule="evenodd" clip-rule="evenodd" d="M170.798 8.6706C169.988 8.44906 169.512 7.61702 169.736 6.81281C169.959 6.00821 170.797 5.53571 171.607 5.75724C172.416 5.97878 172.892 6.81082 172.669 7.61543C172.446 8.42003 171.608 8.89253 170.798 8.6706Z" fill="#26DCFD"/>
</g>
<path fill-rule="evenodd" clip-rule="evenodd" d="M170.746 20.1787C169.937 19.9567 169.461 19.1251 169.684 18.3205C169.907 17.5163 170.744 17.0438 171.555 17.2653C172.365 17.4868 172.84 18.3189 172.617 19.1235C172.394 19.9277 171.556 20.4002 170.746 20.1787Z" fill="#26DCFD"/>
<path fill-rule="evenodd" clip-rule="evenodd" d="M160.763 25.8813C159.953 25.6598 159.477 24.8277 159.701 24.0235C159.923 23.2189 160.761 22.7464 161.571 22.9679C162.381 23.1895 162.857 24.0215 162.634 24.8261C162.41 25.6307 161.573 26.1028 160.763 25.8813Z" fill="#26DCFD"/>
<path fill-rule="evenodd" clip-rule="evenodd" d="M150.779 20.1787C149.97 19.9567 149.494 19.1251 149.717 18.3205C149.94 17.5163 150.778 17.0438 151.588 17.2653C152.398 17.4868 152.873 18.3189 152.65 19.1235C152.427 19.9277 151.589 20.4002 150.779 20.1787Z" fill="#26DCFD"/>
<path fill-rule="evenodd" clip-rule="evenodd" d="M150.779 8.72211C149.97 8.50018 149.494 7.66853 149.717 6.86393C149.94 6.05972 150.778 5.58722 151.588 5.80876C152.398 6.03029 152.873 6.86234 152.65 7.66694C152.427 8.47115 151.589 8.94365 150.779 8.72211Z" fill="#26DCFD"/>
<mask id="mask1" mask-type="alpha" maskUnits="userSpaceOnUse" x="0" y="8" width="36" height="32">
<path fill-rule="evenodd" clip-rule="evenodd" d="M0.62548 11.4887C0.614668 12.0614 0.239434 11.6856 0.670733 12.0825L29.8168 38.9378C30.7135 39.7639 32.0754 39.5682 33.0025 38.7095L33.8215 37.9515C35.6055 36.2989 35.7693 33.8398 34.0437 32.2497L9.71799 9.83455L8.53462 9.17392C7.74291 8.76506 7.39971 8.60199 7.31481 8.56421L0.62548 11.4887Z" fill="white"/>
</mask>
<g mask="url(#mask1)">
<path fill-rule="evenodd" clip-rule="evenodd" d="M0.62548 11.4887C0.614668 12.0614 0.239434 11.6856 0.670733 12.0825L29.8168 38.9378C30.7135 39.7639 32.0754 39.5682 33.0025 38.7095L33.8215 37.9515C35.6055 36.2989 35.7693 33.8398 34.0437 32.2497L9.71799 9.83455L8.53462 9.17392C7.74291 8.76506 7.39971 8.60199 7.31481 8.56421L0.62548 11.4887Z" fill="url(#paint0_linear)"/>
</g>
<mask id="mask2" mask-type="alpha" maskUnits="userSpaceOnUse" x="7" y="27" width="29" height="34">
<path fill-rule="evenodd" clip-rule="evenodd" d="M29.6158 30.736C29.3539 31.4049 27.8198 32.8753 27.8198 32.8753L8.69565 50.7341C8.1402 51.2527 7.82544 51.9766 7.82544 52.7339V59.0852C7.82544 60.2632 9.24188 60.8717 10.1061 60.0652L10.36 59.8285L34.0662 37.7081C34.6464 37.0956 35.2267 36.0027 35.2511 35.2339C35.2928 33.9269 34.9252 33.0961 33.9572 32.1717L29.3539 27.9324C29.3539 27.9324 30.247 29.1236 29.6158 30.736Z" fill="white"/>
</mask>
<g mask="url(#mask2)">
<path fill-rule="evenodd" clip-rule="evenodd" d="M29.6158 30.736C29.3539 31.4049 27.8198 32.8753 27.8198 32.8753L8.69565 50.7341C8.1402 51.2527 7.82544 51.9766 7.82544 52.7339V59.0852C7.82544 60.2632 9.24188 60.8717 10.1061 60.0652L10.36 59.8285L34.0662 37.7081C34.6464 37.0956 35.2267 36.0027 35.2511 35.2339C35.2928 33.9269 34.9252 33.0961 33.9572 32.1717L29.3539 27.9324C29.3539 27.9324 30.247 29.1236 29.6158 30.736Z" fill="url(#paint1_linear)"/>
</g>
<mask id="mask3" mask-type="alpha" maskUnits="userSpaceOnUse" x="0" y="8" width="10" height="40">
<path fill-rule="evenodd" clip-rule="evenodd" d="M5.365 8.00712C3.14964 8.09064 0.148572 9.70621 0.00881018 12.9373L0 43.97C0 46.1082 1.74522 47.8419 3.89851 47.8419C6.06661 47.8419 7.82425 46.0959 7.82425 43.943V11.5584C7.82425 11.5584 7.72453 10.6134 8.1278 10.1934C8.96677 9.32001 9.76489 9.87962 9.76489 9.87962C9.76489 9.87962 8.78696 8.75882 7.4406 8.31337C6.59683 8.03416 5.78549 8.00513 5.48634 8.00513C5.40825 8.00513 5.365 8.00712 5.365 8.00712Z" fill="white"/>
</mask>
<g mask="url(#mask3)">
<path fill-rule="evenodd" clip-rule="evenodd" d="M5.365 8.00712C3.14964 8.09064 0.148572 9.70621 0.00881018 12.9373L0 43.97C0 46.1082 1.74522 47.8419 3.89851 47.8419C6.06661 47.8419 7.82425 46.0959 7.82425 43.943V11.5584C7.82425 11.5584 7.72453 10.6134 8.1278 10.1934C8.96677 9.32001 9.76489 9.87962 9.76489 9.87962C9.76489 9.87962 8.78696 8.75882 7.4406 8.31337C6.59683 8.03416 5.78549 8.00513 5.48634 8.00513C5.40825 8.00513 5.365 8.00712 5.365 8.00712Z" fill="url(#paint2_linear)"/>
</g>
<path fill-rule="evenodd" clip-rule="evenodd" d="M48.998 41.3293C49.9647 41.3293 50.8553 41.163 51.6695 40.8305C52.4832 40.4988 53.1828 40.0359 53.7683 39.4421C54.353 38.8487 54.8171 38.161 55.1611 37.3775C55.5047 36.5947 55.6765 35.7524 55.6765 34.8503C55.6765 33.9729 55.5047 33.1421 55.1611 32.3593C54.8171 31.5758 54.353 30.8933 53.7683 30.3118C53.1828 29.7304 52.4832 29.2734 51.6695 28.9417C50.8553 28.6096 49.9647 28.4433 48.998 28.4433C48.0565 28.4433 47.1719 28.6096 46.3457 28.9417C45.5192 29.2734 44.8007 29.7244 44.1896 30.2943C43.5797 30.8639 43.102 31.54 42.7584 32.3228C42.4156 33.1063 42.2442 33.9487 42.2442 34.8503C42.2442 35.7524 42.4156 36.6011 42.7584 37.3958C43.102 38.1904 43.5797 38.8781 44.1896 39.4596C44.8007 40.0418 45.5192 40.4988 46.3457 40.8305C47.1719 41.163 48.0565 41.3293 48.998 41.3293ZM48.1582 46.0288C46.8094 46.0288 45.4807 45.7791 44.1704 45.2803C42.8601 44.7808 41.6839 44.0553 40.6411 43.1059C39.5971 42.1562 38.7585 40.994 38.1222 39.6171C37.4859 38.2409 37.1687 36.6767 37.1687 34.9239C37.1687 33.1453 37.4795 31.5687 38.1038 30.1929C38.7261 28.8168 39.5535 27.6534 40.5838 26.7041C41.6142 25.7543 42.7972 25.03 44.1328 24.5305C45.4687 24.0317 46.8359 23.7808 48.2347 23.7808C49.7104 23.7808 51.0716 24.0464 52.3178 24.5754C53.5641 25.1056 54.5948 25.8283 55.409 26.743V23.8193H60.5605V45.9906H55.409V42.8403C54.5948 43.8302 53.5516 44.6101 52.2802 45.1765C51.0075 45.7453 49.6331 46.0288 48.1582 46.0288Z" fill="#22C4FA"/>
<path fill-rule="evenodd" clip-rule="evenodd" d="M71.4963 45.3152L62.3213 24.0623L67.9586 24.042L74.2943 38.8621L80.6609 24.044L86.3262 24.042L72.3032 56.4082H66.6992L71.4963 45.3152Z" fill="#22C4FA"/>
<path fill-rule="evenodd" clip-rule="evenodd" d="M96.0109 41.2154C96.9268 41.2154 97.7793 41.0491 98.5683 40.7174C99.3564 40.3857 100.043 39.9359 100.629 39.3667C101.213 38.798 101.672 38.1278 102.002 37.3574C102.333 36.5878 102.498 35.7761 102.498 34.9229C102.498 34.0463 102.333 33.2227 102.002 32.4527C101.672 31.6823 101.213 31.0129 100.629 30.4437C100.043 29.875 99.3564 29.4244 98.5683 29.0927C97.7793 28.7609 96.9268 28.5947 96.0109 28.5947C95.0958 28.5947 94.2368 28.7609 93.4359 29.0927C92.6338 29.4244 91.947 29.875 91.3747 30.4437C90.8021 31.0129 90.3508 31.6823 90.0204 32.4527C89.6892 33.2227 89.5246 34.0463 89.5246 34.9229C89.5246 35.7761 89.6892 36.5878 90.0204 37.3574C90.3508 38.1278 90.8021 38.798 91.3747 39.3667C91.947 39.9359 92.6338 40.3857 93.4359 40.7174C94.2368 41.0491 95.0958 41.2154 96.0109 41.2154ZM96.0109 46.0291C94.4086 46.0291 92.9009 45.7427 91.4893 45.1708C90.0776 44.5988 88.8494 43.8066 87.8066 42.7959C86.7634 41.7857 85.9429 40.6041 85.3454 39.2522C84.7479 37.9007 84.4487 36.4574 84.4487 34.9237C84.4487 33.3646 84.7479 31.9094 85.3454 30.5575C85.9429 29.2068 86.7634 28.0252 87.8066 27.0137C88.8494 26.0043 90.0776 25.212 91.4893 24.6401C92.9009 24.0682 94.4086 23.781 96.0109 23.781C97.6139 23.781 99.1153 24.0682 100.514 24.6401C101.913 25.212 103.141 26.0043 104.197 27.0137C105.252 28.0252 106.079 29.2068 106.677 30.5575C107.275 31.9094 107.574 33.3646 107.574 34.9237C107.574 36.4574 107.275 37.9007 106.677 39.2522C106.079 40.6041 105.252 41.7857 104.197 42.7959C103.141 43.8066 101.913 44.5988 100.514 45.1708C99.1153 45.7427 97.6139 46.0291 96.0109 46.0291Z" fill="#22C4FA"/>
<path fill-rule="evenodd" clip-rule="evenodd" d="M109.825 23.8192H114.939V26.8475C115.676 25.9232 116.612 25.1814 117.744 24.621C118.876 24.0614 120.166 23.781 121.617 23.781C124.389 23.781 126.558 24.5999 128.123 26.2366C129.688 27.8728 130.47 30.1554 130.47 33.0819V45.9905H125.242V33.659C125.242 31.9806 124.822 30.6541 123.983 29.6781C123.144 28.7033 121.884 28.2161 120.205 28.2161C118.729 28.2161 117.489 28.7216 116.485 29.7342C115.479 30.7464 114.977 32.2025 114.977 34.1036V45.9905H109.825V23.8192Z" fill="#22C4FA"/>
<path fill-rule="evenodd" clip-rule="evenodd" d="M137.911 32.0058C138.37 30.8917 139.164 29.9941 140.297 29.3128C141.428 28.6318 142.77 28.2918 144.322 28.2918C145.925 28.2918 147.273 28.6068 148.367 29.2352C149.461 29.8644 150.199 30.7879 150.581 32.0058H137.911ZM155.809 34.476C155.809 32.9364 155.522 31.515 154.95 30.2128C154.377 28.9095 153.582 27.7791 152.565 26.8186C151.546 25.8597 150.333 25.1135 148.921 24.581C147.509 24.048 145.976 23.7808 144.322 23.7808C142.693 23.7808 141.174 24.0743 139.762 24.6581C138.35 25.2424 137.122 26.0335 136.079 27.0322C135.036 28.0305 134.216 29.2125 133.618 30.5755C133.02 31.9397 132.721 33.401 132.721 34.9601C132.721 36.4937 133.007 37.9371 133.58 39.2889C134.153 40.6396 134.954 41.8157 135.984 42.814C137.014 43.8127 138.254 44.5986 139.705 45.1705C141.155 45.7425 142.758 46.0288 144.513 46.0288C147.006 46.0288 149.124 45.4788 150.866 44.3803C152.244 43.5108 153.37 42.4159 154.263 41.1121L150.066 38.7051C149.59 39.3935 149.005 39.9842 148.291 40.4571C147.222 41.1646 145.962 41.5182 144.513 41.5182C142.681 41.5182 141.167 41.0385 139.971 40.0784C138.776 39.1183 138 37.8555 137.644 36.2885H155.809V34.476Z" fill="#22C4FA"/>
<defs>
<linearGradient id="paint0_linear" x1="-2.80218" y1="15.3216" x2="18.2216" y2="39.3842" gradientUnits="userSpaceOnUse">
<stop stop-color="#0087EB"/>
<stop offset="1" stop-color="#00C9FF"/>
</linearGradient>
<linearGradient id="paint1_linear" x1="22.5632" y1="19.2099" x2="-3.25959" y2="36.6727" gradientUnits="userSpaceOnUse">
<stop stop-color="#00DCFF"/>
<stop offset="1" stop-color="#00C3FF"/>
</linearGradient>
<linearGradient id="paint2_linear" x1="0.103275" y1="8.78013" x2="0.103275" y2="47.8419" gradientUnits="userSpaceOnUse">
<stop stop-color="#0075E5"/>
<stop offset="1" stop-color="#00B5FA"/>
</linearGradient>
</defs>
</svg>
